<svg width="256" height="256" version="1.1" viewBox="0 0 256 256" xmlns="http://www.w3.org/2000/svg"><path d="m38.184 19.092h182.43v189.5l-91.217 38.184-91.217-38.184z" fill="#fff"/><path d="m38.374-1.0515e-6h179.25c14.318 0 19.603 5.4073 19.603 20.062v176.85c0 1.6634 0 13.133-11.244 19.196-7.4977 4.0393-36.823 16.468-87.978 37.285-4.5184 2.1202-6.7007 2.6689-10.005 2.6068-3.7141 0-5.1068-0.5015-10.055-2.6068-51.121-21.49-80.431-33.921-87.931-37.285-11.246-5.0522-10.713-11.371-11.04-14.568a46.627 46.627 0 0 1-0.20606-4.6277v-176.85c0-14.655 5.2856-20.062 19.603-20.062zm164.08 180.25 0.0372-0.43199v-0.94589l-0.0372-0.43199-0.0422-0.39474-0.15889-0.78949-0.0794-0.35254-0.11669-0.35502-0.12413-0.35751-0.15641-0.31281-0.2011-0.35751-0.20109-0.31281-0.23834-0.35254-0.23833-0.31778-0.28055-0.2731-0.28054-0.31778-0.31778-0.27557-0.31778-0.27558-0.32275-0.19861-0.31778-0.23834-0.31778-0.19365-0.35999-0.19861-0.35998-0.19613-0.39723-0.19862-0.40219-0.15889-0.39723-0.19861-0.43943-0.14896-0.35999-0.12165-0.3575-0.11917-0.4022-0.1142-0.3575-0.11917-0.39723-0.11917-0.39722-0.11917-0.40468-0.0794-0.43943-0.11917-0.39723-0.1142-0.43943-0.0819-0.43943-0.11669-0.43944-0.11916-0.43943-0.11917-0.39723-0.077-0.35998-0.11917-0.35999-0.0795-0.31778-0.11917-0.31778-0.077-0.48164-0.15641-0.43943-0.16137-0.39723-0.15641-0.31778-0.19613-0.36495-0.19861-0.27558-0.2731-0.16386-0.23585-0.19613-0.43447-0.0422-0.51143v-0.0819l0.0422-0.38978 0.15889-0.35751 0.23834-0.35502 0.35999-0.3153 0.28054-0.15641 0.31778-0.1564 0.35999-0.0795 0.40219-0.0819 0.43447-0.077h0.87886l0.35999 0.0397 0.40219 0.0372 0.39723 0.0422 0.39723 0.077 0.39722 0.0795 0.40219 0.077 0.39723 0.11917 0.40219 0.11916 0.43695 0.11917 0.32275 0.15641 0.3575 0.11917 0.31779 0.15641 0.35998 0.15641 0.32027 0.16137 0.35998 0.15641 0.31779 0.19861 0.35998 0.15393 0.32275 0.23833 0.3153 0.19862 0.3575 0.19613 0.32275 0.23585 0.23834-0.31282 0.19861-0.31778 0.24082-0.3153 0.23833-0.31281 0.23834-0.35751 0.19861-0.31281 0.24082-0.31779 0.2433-0.31529 0.19613-0.31282 0.23834-0.31778 0.2433-0.3153 0.19862-0.31282 0.23585-0.3575 0.2433-0.31282 0.23834-0.31778 0.19861-0.3153 0.24082-0.31778-0.31778-0.23337-0.31778-0.23585-0.32275-0.23834-0.31778-0.19861-0.35999-0.23337-0.31778-0.19862-0.35999-0.19613-0.35998-0.19861-0.31779-0.15889-0.35998-0.19365-0.4022-0.15889-0.3575-0.15641-0.35999-0.15641-0.3575-0.11917-0.40219-0.16137-0.35751-0.077-0.35998-0.11917-0.39971-0.11669-0.35751-0.077-0.39971-0.0819-0.39722-0.0794-0.36247-0.077-0.39723-0.0795-0.43943-0.0397-0.39723-0.0794-0.44192-0.0372h-0.39722l-0.44192-0.0397-0.43943-0.0422h-1.713l-0.79694 0.0819-0.40219 0.0372-0.39723 0.0422-0.35998 0.077-0.39723 0.0795-0.36495 0.077-0.35502 0.0794-0.31779 0.0819-0.36495 0.1142-0.39723 0.16138-0.39722 0.1142-0.35999 0.16137-0.35999 0.19862-0.35998 0.15392-0.35999 0.19862-0.31778 0.19861-0.31778 0.23337-0.32275 0.23834-0.27558 0.19861-0.32274 0.27309-0.27558 0.31779-0.28054 0.27309-0.28054 0.3153-0.23834 0.3153-0.23833 0.31778-0.2011 0.35254-0.19861 0.35502-0.16138 0.3575-0.15889 0.35254-0.15889 0.35502-0.0794 0.35254-0.12414 0.35751-0.15641 0.70756-0.0422 0.39722-0.0372 0.35254-0.0422 0.39475v0.90865l0.0422 0.42951 0.0372 0.39722 0.0422 0.39226 0.0795 0.35503 0.0794 0.39474 0.12166 0.31282 0.11668 0.3575 0.12165 0.31282 0.15889 0.27309 0.19862 0.35502 0.19861 0.31778 0.19861 0.2731 0.24082 0.27806 0.2433 0.27309 0.27558 0.27806 0.28054 0.27309 0.28054 0.24082 0.31778 0.19861 0.32275 0.23337 0.35502 0.19862 0.32275 0.19613 0.39723 0.19861 0.35998 0.19613 0.39723 0.15641 0.40219 0.15889 0.39723 0.15641 0.43943 0.15641 0.71998 0.23833 0.35502 0.11917 0.40219 0.0795 0.35999 0.11917 0.39722 0.1142 0.39723 0.0794 0.40219 0.11917 0.39723 0.077 0.43943 0.11916 0.40219 0.0795 0.43447 0.11917 0.40219 0.077 0.39723 0.11917 0.35999 0.0794 0.35998 0.11917 0.31779 0.077 0.28054 0.0795 0.47915 0.19613 0.39971 0.16137 0.35999 0.15641 0.31778 0.15641 0.32026 0.23834 0.27806 0.23337 0.2011 0.27557 0.15889 0.39475 0.0422 0.4717v0.0794l-0.0422 0.39474-0.11917 0.35254-0.15889 0.31778-0.24082 0.2731-0.31778 0.24082-0.28054 0.1564-0.32275 0.11917-0.35502 0.077-0.35999 0.0794-0.39971 0.077-0.43943 0.0422h-0.87638l-0.43943-0.0422h-0.39723l-0.40219-0.077-0.43943-0.0372-0.39723-0.0819-0.39723-0.0794-0.40219-0.077-0.35999-0.11916-0.39722-0.11669-0.39723-0.11917-0.36495-0.1564-0.35502-0.11917-0.35999-0.15889-0.71998-0.31282-0.31778-0.19861-0.35998-0.15641-0.31779-0.19862-0.35998-0.23585-0.32275-0.19861-0.35502-0.23337-0.32275-0.23834-0.35502-0.23834-0.32275-0.23585-0.23833 0.31778-0.28054 0.27558-0.23834 0.3153-0.28054 0.31281-0.23834 0.27558-0.23833 0.31778-0.28055 0.3153-0.23833 0.27558-0.28054 0.31281-0.23834 0.28054-0.28054 0.31282-0.23834 0.3153-0.23833 0.27558-0.28054 0.31778-0.23834 0.31281-0.28054 0.2731-0.23834 0.31778 0.31778 0.27558 0.28054 0.23833 0.31779 0.23585 0.31778 0.23834 0.32274 0.23337 0.31779 0.23834 0.63556 0.39722 0.36495 0.19614 0.31778 0.19364 0.35502 0.19862 0.36496 0.15889 0.35502 0.19365 0.35999 0.1564 0.35998 0.1589 0.39723 0.1564 0.35999 0.11917 0.39722 0.11917 0.35999 0.15641 0.40219 0.11917 0.39723 0.11668 0.35999 0.0819 0.39722 0.1142 0.4022 0.0819 0.39722 0.0795 0.79942 0.1564 0.39723 0.0397 0.40219 0.0794 0.43447 0.0372 0.40219 0.0397 0.39723 0.0422h0.43943l0.39723 0.0372h1.6783l0.39723-0.0372 0.44191-0.0422 0.39971-0.0397 0.35999-0.0372 0.39723-0.0422 0.40219-0.077 0.3575-0.0794 0.35999-0.077 0.39723-0.0795 0.36247-0.11917 0.39722-0.11917 0.39723-0.11916 0.39723-0.15641 0.40467-0.15641 0.35751-0.19861 0.3575-0.15889 0.36247-0.19862 0.32026-0.23337 0.31779-0.19365 0.31778-0.23833 0.28054-0.23337 0.31778-0.28055 0.23834-0.23337 0.28054-0.27557 0.23833-0.27558 0.19862-0.31778 0.24082-0.3153 0.40219-0.6306 0.15889-0.35254 0.15889-0.31778 0.15889-0.35254 0.12165-0.39722 0.0795-0.35254 0.11668-0.39475 0.0844-0.39474 0.0372-0.43199 0.0422-0.39474zm-27.997 7.88h0.40219v-6.5021h-15.648v-4.8834h13.891v-6.1074h-13.891v-4.6922h15.447v-6.5046h-23.071v28.69zm-29.161 0h0.39723v-28.69h-8.1804l-0.2011 0.3153-0.19861 0.35502-0.24082 0.31282-0.2011 0.3575-0.19861 0.31282-0.19861 0.3575-0.23834 0.31282-0.2011 0.35254-0.20109 0.31778-0.19862 0.31282-0.23833 0.35253-0.19861 0.31779-0.2011 0.35253-0.2011 0.31779-0.23585 0.34757-0.19861 0.31778-0.20358 0.31778-0.19862 0.34758-0.19861 0.31778-0.23834 0.35502-0.19861 0.3153-0.20358 0.35005-0.19861 0.31779-0.24082 0.35254-0.19613 0.31281-0.19861 0.31778-0.20358 0.35254-0.23834 0.31778-0.19861 0.35254-0.19862 0.31282-0.19861 0.3575-0.24082 0.31282-0.19861 0.35254-0.20358 0.31778-0.19613-0.31778-0.19862-0.35254-0.24578-0.31282-0.19613-0.3575-0.19861-0.31282-0.19862-0.35254-0.19861-0.31778-0.24579-0.35254-0.19613-0.31778-0.19861-0.31281-0.19861-0.35254-0.19862-0.31779-0.24578-0.34757-0.19613-0.31778-0.19862-0.35502-0.19861-0.3153-0.20109-0.35006-0.24331-0.31778-0.19613-0.3153-0.19861-0.35005-0.20358-0.31779-0.23834-0.35253-0.19861-0.31779-0.19861-0.35253-0.19862-0.31282-0.20357-0.31778-0.23834-0.35254-0.19861-0.31282-0.19862-0.3575-0.19861-0.31282-0.20358-0.3575-0.23834-0.31282-0.19861-0.35502-0.19861-0.3153h-8.1829v28.69h7.5846v-16.887l0.23834 0.31778 0.19861 0.3575 0.24082 0.31282 0.19862 0.3575 0.24081 0.3153 0.19862 0.35502 0.24082 0.3153 0.19861 0.35502 0.24082 0.3153 0.19861 0.35502 0.24082 0.3153 0.19861 0.35751 0.23586 0.31778 0.20109 0.35254 0.23834 0.31778 0.2011 0.35254 0.2433 0.31778 0.23833 0.35254 0.19862 0.31778 0.23585 0.3575 0.2011 0.3153 0.2433 0.35503 0.19861 0.31529 0.24082 0.35254 0.19861 0.31778 0.23586 0.35254 0.20109 0.31779 0.23834 0.35253 0.2011 0.32275 0.23833 0.35254 0.2011 0.3153 0.23834 0.35502 0.20109 0.3153 0.23834 0.35502h0.15889l0.20109-0.31282 0.23834-0.3575 0.2011-0.31778 0.23833-0.3153 0.2011-0.35502 0.23834-0.3153 0.19861-0.31778 0.19861-0.35254 0.2433-0.31778 0.19862-0.31282 0.24082-0.32026 0.19861-0.35254 0.23834-0.3153 0.19861-0.31282 0.2011-0.3575 0.23833-0.31778 0.2011-0.3153 0.23833-0.35502 0.19862-0.3153 0.24082-0.31778 0.20109-0.35254 0.19862-0.31778 0.24081-0.31282 0.19862-0.3575 0.23833-0.3153 0.19862-0.31779 0.24082-0.31281 0.19861-0.35751 0.19861-0.31529 0.24331-0.31779 0.19861-0.35254 0.23833-0.31778 0.2011-0.31281 0.23834-0.35751 0.19861-0.3153v16.964zm-46.314-11.822 0.15889 0.35502h-6.7454l0.15889-0.35502 0.12165-0.3575 0.15889-0.39475 0.16137-0.35254 0.11917-0.3575 0.15889-0.35502 0.15889-0.39475 0.15889-0.3575 0.12165-0.35254 0.15889-0.35502 0.15889-0.35751 0.12165-0.39474 0.15889-0.35254 0.15889-0.3575 0.12165-0.35503 0.15889-0.3575 0.15889-0.39474 0.15889-0.35254 0.12165-0.35751 0.15889-0.3575 0.15889-0.39226 0.12165-0.35502 0.15889-0.35751 0.15889 0.35751 0.12165 0.35502 0.15393 0.39226 0.16386 0.3575 0.12165 0.35751 0.15889 0.35254 0.15889 0.39722 0.11669 0.35502 0.16386 0.35503 0.15889 0.3575 0.11669 0.35254 0.16386 0.39723 0.11668 0.35502 0.15889 0.35502 0.15889 0.35254 0.12413 0.3575 0.15641 0.39723 0.15889 0.35254 0.12413 0.3575 0.15641 0.35254 0.15889 0.39723 0.12413 0.35502zm12.535 11.822h0.39723l-0.15889-0.35254-0.15889-0.35502-0.15889-0.35751-0.12414-0.39474-0.1564-0.34758-0.15889-0.35502-0.15889-0.3575-0.32275-0.70756-0.15641-0.39723-0.16137-0.35254-0.12414-0.3575-0.15392-0.35254-0.16138-0.35502-0.15889-0.35254-0.15889-0.39723-0.16137-0.35502-0.32275-0.70756-0.1142-0.35502-0.16137-0.35751-0.16138-0.39474-0.15889-0.35254-0.15889-0.35502-0.31778-0.70756-0.16137-0.35502-0.11917-0.39723-0.15889-0.35254-0.16138-0.35254-0.15889-0.35502-0.16137-0.3575-0.15889-0.35254-0.15889-0.39723-0.15889-0.35254-0.12414-0.35254-0.15392-0.3575-0.16137-0.35502-0.16138-0.35254-0.15889-0.39723-0.15889-0.35254-0.32275-0.71004-0.11668-0.35502-0.15889-0.35254-0.16138-0.35502-0.1564-0.39475-0.32275-0.70756-0.15889-0.3575-0.15889-0.35254-0.12165-0.35502-0.15889-0.39475-0.1589-0.35254-0.15889-0.3575-0.16137-0.35254-0.16137-0.35502-0.15889-0.35254-0.15889-0.39723-0.11917-0.35254-0.15641-0.3575-0.16386-0.35254-0.15889-0.35502-0.15889-0.3575-0.15889-0.38978-0.16137-0.35751-0.16138-0.35502-0.11668-0.35254-0.15889-0.35502-0.16386-0.3575-0.15392-0.39475-0.16386-0.35254-0.15889-0.35502-0.15889-0.35254-0.15889-0.3575-0.12165-0.35502-0.15889-0.39475-0.15889-0.35254-0.15889-0.35502-0.16386-0.3575h-7.381l-0.15889 0.3575-0.15889 0.35502-0.16386 0.35254-0.11668 0.39723-0.15889 0.35254-0.15889 0.3575-0.16386 0.35254-0.15641 0.35502-0.16137 0.35254-0.15889 0.39723-0.16386 0.35502-0.11669 0.35502-0.31778 0.70756-0.15889 0.35751-0.15889 0.38978-0.16386 0.3575-0.15889 0.35502-0.15889 0.35254-0.12413 0.3575-0.15641 0.35503-0.15889 0.39474-0.31778 0.70756-0.15889 0.35254-0.16137 0.3575-0.16137 0.35254-0.11668 0.39723-0.16137 0.35254-0.15889 0.35254-0.16137 0.3575-0.15889 0.35502-0.15889 0.35254-0.15889 0.39723-0.16137 0.35254-0.11917 0.35254-0.32026 0.70756-0.15889 0.3575-0.16137 0.35502-0.15889 0.39475-0.15889 0.35254-0.15889 0.35502-0.12413 0.3575-0.15641 0.35254-0.15889 0.35502-0.16137 0.39475-0.15889 0.35254-0.15889 0.3575-0.15889 0.35502-0.16137 0.35254-0.11917 0.35502-0.15889 0.39475-0.16137 0.35502-0.15889 0.35502-0.15889 0.35254-0.16137 0.35502-0.15889 0.35254-0.15889 0.39723-0.12165 0.35502-0.31778 0.70756-0.15889 0.35502-0.16137 0.3575-0.15889 0.39475-0.15641 0.35254-0.16386 0.35502-0.11917 0.35254-0.16137 0.3575-0.15889 0.35502-0.15889 0.39475-0.15889 0.35254-0.15889 0.35502-0.32275 0.71004-0.11917 0.35006-0.15641 0.39723-0.32275 0.71004-0.15889 0.35254h8.0662l0.15889-0.35254 0.11917-0.35502 0.16137-0.35751 0.15889-0.39474 0.11917-0.34758 0.16137-0.35502 0.15889-0.3575 0.11668-0.35502 0.16137-0.35254 0.16137-0.35502 0.11669-0.35751 0.15889-0.39474 0.16386-0.35254 0.11917-0.35502 0.15641-0.35254h11.458l0.15889 0.35254 0.12414 0.35502 0.15641 0.35254 0.15889 0.39723 0.11917 0.35502 0.16137 0.35502 0.15889 0.35254 0.11917 0.35502 0.32274 0.71004 0.11421 0.35006 0.16137 0.39723 0.16137 0.35502 0.12165 0.35502 0.15641 0.35254zm-34.971-3.6644 0.28054-0.23337v-12.811h-13.173v5.7548h5.8293v3.585l-0.31778 0.19861-0.28551 0.15889-0.35502 0.15641-0.32275 0.15641-0.35999 0.15889-0.35502 0.0794-0.39723 0.11917-0.40219 0.077-0.39723 0.0794-0.40219 0.0372-0.43943 0.0397-0.43943 0.0422h-0.91859l-0.43695-0.0422-0.39723-0.0397-0.40219-0.0794-0.39723-0.077-0.40219-0.11917-0.39723-0.11668-0.35999-0.15889-0.35999-0.15641-0.35502-0.15641-0.32275-0.19861-0.31778-0.19862-0.31778-0.23585-0.32275-0.23585-0.27806-0.23834-0.24082-0.27309-0.27806-0.27806-0.24082-0.27309-0.23834-0.31779-0.19861-0.31281-0.20358-0.3153-0.19861-0.35502-0.15641-0.35751-0.16386-0.39474-0.11669-0.31282-0.11917-0.35254-0.07944-0.3575-0.16137-0.70756-0.0422-0.39723-0.03724-0.35502-0.03972-0.39226v-0.90866l0.03972-0.39474 0.03724-0.38978 0.08193-0.43695 0.08193-0.35254 0.07944-0.39226 0.11917-0.39475 0.15641-0.35253 0.12165-0.35751 0.16137-0.35502 0.2011-0.3153 0.19861-0.35502 0.19861-0.3153 0.19861-0.27558 0.24082-0.31281 0.27806-0.27806 0.24082-0.27558 0.27806-0.23585 0.28054-0.23834 0.28054-0.23337 0.63556-0.39722 0.32275-0.19614 0.35999-0.1564 0.35502-0.15889 0.35999-0.11669 0.35999-0.11917 0.35999-0.077 0.39723-0.0795 0.35999-0.0397 0.40219-0.0422h0.83666l0.43943 0.0422 0.43943 0.0397 0.39723 0.0372 0.39723 0.0795 0.40219 0.0819 0.35999 0.077 0.35502 0.11669 0.35999 0.11916 0.32275 0.11917 0.31778 0.15641 0.32275 0.15889 0.35502 0.19861 0.31778 0.19365 0.32275 0.19862 0.31778 0.19613 0.31778 0.23833 0.32275 0.19613 0.31778 0.27558 0.31778 0.23585 0.23834-0.31281 0.28054-0.27558 0.23834-0.31778 0.28054-0.3153 0.23834-0.31282 0.2433-0.28054 0.27806-0.31281 0.24082-0.3153 0.27806-0.31778 0.24082-0.2731 0.23834-0.3153 0.28054-0.3153 0.23834-0.27557 0.23834-0.31778 0.28054-0.3153 0.23834-0.31282 0.28054-0.27557 0.23834-0.31779-0.31778-0.23833-0.32275-0.2731-0.31778-0.23585-0.31778-0.23834-0.31778-0.19861-0.31778-0.23337-0.36247-0.19861-0.32026-0.19862-0.35502-0.19613-0.32275-0.19861-0.35999-0.15393-0.35502-0.19861-0.36495-0.15641-0.35502-0.15889-0.35999-0.15641-0.35999-0.11916-0.31778-0.11917-0.35999-0.0795-0.35999-0.1142-0.35999-0.0819-0.35502-0.0794-0.36495-0.077-0.39723-0.0794-0.39723-0.077-0.35999-0.0422-0.43943-0.077-0.39723-0.0422h-0.40219l-0.43943-0.0372-0.43943-0.0397h-1.7155l-0.39723 0.0397-0.40219 0.0372-0.79445 0.0819-0.40219 0.0794-0.39723 0.0372-0.39723 0.077-0.35999 0.11917-0.40219 0.0794-0.35999 0.11917-0.3575 0.077-0.3575 0.16138-0.40219 0.1142-0.31778 0.11917-0.39723 0.19861-0.35999 0.15641-0.35999 0.15889-0.71997 0.39723-0.35999 0.19613-0.3153 0.19861-0.32275 0.19117-0.31778 0.23833-0.32275 0.19861-0.31778 0.23338-0.27806 0.23833-0.32026 0.27558-0.28054 0.23585-0.27806 0.27806-0.27806 0.27558-0.24082 0.27557-0.27806 0.27558-0.24082 0.27558-0.24082 0.31778-0.23834 0.31281-0.23834 0.3153-0.40219 0.6306-0.19613 0.3153-0.19861 0.31778-0.20358 0.35254-0.15889 0.35502-0.31778 0.71004-0.15889 0.35503-0.16386 0.39474-0.11668 0.35254-0.12165 0.39474-0.11668 0.35254-0.07945 0.39723-0.12165 0.39226-0.07944 0.35502-0.04221 0.39475-0.07945 0.38977-0.03972 0.43695-0.03972 0.39475v0.38978l-0.03724 0.43695v1.2984l0.03724 0.39723 0.03972 0.39226 0.03972 0.39723 0.04221 0.35254 0.07944 0.39474 0.03724 0.35254 0.07944 0.39723 0.12413 0.35254 0.07696 0.39474 0.12413 0.35254 0.07696 0.3575 0.15889 0.35254 0.12165 0.31778 0.15889 0.35254 0.15889 0.35502 0.15889 0.35254 0.15889 0.35751 0.2011 0.31281 0.2011 0.35751 0.19861 0.31281 0.19861 0.31779 0.23834 0.3153 0.2011 0.31281 0.23834 0.27558 0.24082 0.31778 0.24082 0.27309 0.27806 0.27806 0.27806 0.2731 0.28054 0.24081 0.28054 0.2731 0.27806 0.24082 0.28054 0.23337 0.32275 0.23833 0.3153 0.23586 0.32026 0.23833 0.31778 0.19365 0.32275 0.19861 0.3575 0.19614 0.31778 0.19861 0.35999 0.19613 0.35999 0.15641 0.3575 0.15641 0.36247 0.15889 0.39723 0.1564 0.3575 0.11917 0.35999 0.15641 0.35999 0.11917 0.39971 0.0794 0.3575 0.11917 0.40219 0.077 0.35999 0.0794 0.39723 0.077 0.39723 0.0795 0.40219 0.0397 0.39723 0.0422 0.39723 0.0372 0.43943 0.0397 0.39723 0.0372h1.7205l0.43943-0.0372 0.39723-0.0397 0.43943-0.0372 0.40219-0.0422 0.43447-0.0397 0.40219-0.0372 0.39723-0.0795 0.40219-0.0819 0.35502-0.077 0.40219-0.0794 0.35999-0.11917 0.39723-0.1142 1.08-0.35751 0.35502-0.15641 0.40219-0.1564 0.35999-0.16138 0.39723-0.15641 0.35999-0.19861 0.35999-0.15392 0.3575-0.19862 0.35999-0.19861 0.3575-0.19117 0.32026-0.19861 0.32275-0.19861 0.3153-0.23586 0.32026-0.19861 0.32275-0.23337 0.27309-0.19862zm11.743-95.051v-14.881h-19.807v-24.906h19.807v-14.871h-34.757v99.307h34.757v-14.851h-19.807v-29.797zm99.314 26.068c0 3.9052-1.9613 5.7176-5.8119 5.7176h-2.8551c-3.9971 0-6.1918-1.8124-6.1918-5.7176v-60.853c0-3.9077 2.1922-6.5145 6.1893-6.5145h2.5696c4.6873 0 6.0999 1.5839 6.0999 6.5145v19.844l14.889 0.02483v-21.386c0-12.13-6.3109-18.267-18.729-18.267h-7.4282c-12.418 0-18.531 7.6466-18.531 19.784v61.55c0 12.135 6.1123 17.942 18.531 17.942h7.5697c12.423 0 18.588-5.8094 18.588-17.942v-21.825h-14.889zm-49.661 18.58h14.896v-99.307h-14.896zm-19.874-55.185c0 3.9723-1.0849 5.5314-4.6873 5.5314h-5.2459v-36.316h5.2459c3.5999 0 4.6873 1.8421 4.6873 5.8144zm-24.814-44.122v99.307h14.881v-36.036h7.5126c11.599 0 17.329-6.0974 17.329-18.436v-26.391c0-12.346-5.73-18.444-17.329-18.444zm74.48 188.78h-79.445l39.723 14.812z" fill-rule="evenodd"/></svg>
